<svg xmlns="http://www.w3.org/2000/svg" version="1.1" viewBox="0 0 32 32.000001" height="32" width="32">
  <g style="display:none">
    <path d="M 0,0 0,4 0,8 4,8 4,4 8,4 8,0 Z m 0,12 0,8 4,0 0,-8 z m 0,12 0,4 0,4 8,0 0,-4 -4,0 0,-4 z m 28,0 0,4 -4,0 0,4 8,0 0,-4 0,-4 z m -16,4 0,4 8,0 0,-4 z" style="opacity:1;fill:#cacaca;fill-opacity:1;stroke:none;stroke-width:4;stroke-linecap:butt;stroke-linejoin:bevel;stroke-miterlimit:4;stroke-dasharray:none;stroke-dashoffset:1;stroke-opacity:1" />
  </g>
  <g>
    <path d="M 7.1876411,2.8971925 10.853347,1.0643394 29.181876,21.225722 h -5.498559 z" style="fill:#323232;fill-opacity:1;stroke:none;stroke-width:0.91642648px;stroke-linecap:butt;stroke-linejoin:miter;stroke-opacity:1" />
    <path d="M 11.718133,7.6254541 2.553869,16.78972 13.550986,27.786838 22.715251,18.622573" style="fill:none;stroke:#323232;stroke-width:3.29913521;stroke-linecap:butt;stroke-linejoin:miter;stroke-miterlimit:4;stroke-dasharray:none;stroke-opacity:1" />
    <path d="m 28.33013,21.509226 c 0,0 1.819867,3.21066 2.495505,4.911691 0.675639,1.701029 0.762131,4.333575 -1.671316,4.293075 -2.433446,-0.0405 -2.982218,-2.370466 -2.326766,-3.959532 0.655451,-1.589065 1.502577,-5.245234 1.502577,-5.245234 z" style="fill:#323232;fill-opacity:1;stroke:none;stroke-width:0.85871017px;stroke-linecap:butt;stroke-linejoin:miter;stroke-opacity:1" />
    <path d="M 4.3867219,16.78972 H 20.882398 l 1.832853,1.832853 -10.997118,9.164265 -9.164264,-9.164265 1.8328529,-1.832853" style="fill:#323232;fill-opacity:1;stroke:none;stroke-width:0.91642648px;stroke-linecap:butt;stroke-linejoin:miter;stroke-opacity:1" />
  </g>
</svg>
