<svg xmlns="http://www.w3.org/2000/svg" version="1.1" width="16.285522" height="20.945892" viewBox="0 0 16.285523 20.945892">
  <g transform="matrix(1.3333333,0,0,-1.3333333,-715.0026,636.27209)">
    <g transform="scale(0.1)">
      <path d="m 5435.51,4687.43 c -16.23,-9.78 -37.29,-4.59 -47.05,11.62 -9.79,16.22 -4.57,37.27 11.62,47.04 16.23,9.8 37.28,4.61 47.05,-11.62 9.78,-16.2 4.57,-37.27 -11.62,-47.04 z m 47.17,-51.6 -25.49,42.25 c 17.24,17.58 21.21,45.17 7.91,67.22 -15.76,26.14 -49.73,34.56 -75.88,18.79 -26.11,-15.76 -34.51,-49.74 -18.75,-75.86 13.3,-22.09 39.57,-31.44 63.16,-24.35 l 25.49,-42.27 c 3.93,-6.52 12.4,-8.61 18.89,-4.68 6.48,3.9 8.61,12.38 4.67,18.9" style="fill:#100f0d;fill-opacity:1;fill-rule:nonzero;stroke:none" />
    </g>
  </g>
</svg>
