<svg xmlns="http://www.w3.org/2000/svg" version="1.1" width="31.326963" height="40.000214" viewBox="0 0 31.326964 40.000214">
  <g transform="matrix(1.3333333,0,0,-1.3333333,-641.61314,646.67172)">
    <g transform="scale(0.1)">
      <path d="m 4957.07,4681.99 c -32.23,-19.42 -74.05,-9.1 -93.46,23.1 -19.44,32.19 -9.06,73.99 23.09,93.4 32.22,19.47 74.05,9.14 93.45,-23.1 19.43,-32.16 9.08,-74 -23.08,-93.4 z m 86.05,-90.49 -43.01,71.92 c 34.26,34.9 42.15,89.73 15.72,133.53 -31.3,51.89 -98.75,68.61 -150.69,37.31 -51.87,-31.31 -68.56,-98.81 -37.24,-150.68 26.43,-43.86 78.59,-62.45 125.43,-48.37 l 43,-71.93 c 7.81,-12.96 24.64,-17.1 37.5,-9.32 12.9,7.76 17.1,24.6 9.29,37.54" style="fill:#100f0d;fill-opacity:1;fill-rule:nonzero;stroke:none" />
    </g>
  </g>
</svg>

