<svg xmlns="http://www.w3.org/2000/svg" version="1.1" width="38.516006" height="40" viewBox="0 0 38.516008 40">
  <g transform="matrix(1.3333333,0,0,-1.3333333,-166.516,434.56799)">
    <g transform="scale(0.1)">
      <path d="m 1393.31,3047.13 c -34.31,0 -62.12,27.81 -62.12,62.13 0,34.3 27.81,62.11 62.12,62.11 34.3,0 62.11,-27.81 62.11,-62.11 0,-34.32 -27.81,-62.13 -62.11,-62.13 z m 120.2,62.13 c 0,6.52 -0.66,12.88 -1.67,19.12 l 25.9,20.9 c -6.89,24.88 -19.9,47.19 -37.49,65.08 l -31,-11.98 c -9.88,8.08 -21.11,14.52 -33.24,19.13 l -5.15,32.81 c -12.02,3.1 -24.56,4.94 -37.55,4.94 -13,0 -25.54,-1.84 -37.56,-4.94 l -5.15,-32.81 c -12.13,-4.61 -23.36,-11.05 -33.24,-19.13 l -31.02,11.96 c -17.58,-17.89 -30.59,-40.19 -37.47,-65.06 l 25.9,-20.9 c -1.01,-6.24 -1.67,-12.6 -1.67,-19.12 0,-6.53 0.67,-12.89 1.67,-19.13 l -25.9,-20.91 c 6.89,-24.86 19.9,-47.17 37.49,-65.06 l 31.01,11.96 c 9.87,-8.07 21.11,-14.5 33.23,-19.13 l 5.15,-32.81 c 12.02,-3.1 24.56,-4.92 37.56,-4.92 12.99,0 25.53,1.82 37.55,4.92 l 5.15,32.81 c 12.13,4.63 23.36,11.06 33.24,19.13 l 31,-11.96 c 17.59,17.89 30.6,40.2 37.49,65.07 l -25.9,20.9 c 1.01,6.24 1.67,12.6 1.67,19.13" style="fill:#100f0d;fill-opacity:1;fill-rule:nonzero;stroke:none" />
    </g>
  </g>
</svg>
