<svg xmlns="http://www.w3.org/2000/svg" version="1.1" width="32.047974" height="32.590668" viewBox="0 0 32.047975 32.590668">
  <g transform="matrix(1.3333333,0,0,-1.3333333,-450.68132,500.05465)">
    <g transform="scale(0.1)">
      <path d="m 3567.62,3750.41 c -4.83,0 -8.81,-3.94 -8.81,-8.81 v -226.81 c 0,-4.85 3.98,-8.81 8.81,-8.81 h 44.05 c 4.84,0 8.8,3.96 8.8,8.81 v 226.81 c 0,4.87 -3.96,8.81 -8.8,8.81 z m -187.51,-235.62 c 0,-4.85 3.96,-8.81 8.8,-8.81 h 44.05 c 4.83,0 8.81,3.96 8.81,8.81 v 92.89 c 0,4.86 -3.98,8.81 -8.81,8.81 h -44.05 c -4.84,0 -8.8,-3.95 -8.8,-8.81 z m 89.35,158.54 c 0,4.84 3.96,8.8 8.81,8.8 h 44.03 c 4.85,0 8.81,-3.96 8.81,-8.8 v -158.54 c 0,-4.85 -3.96,-8.81 -8.81,-8.81 h -44.03 c -4.85,0 -8.81,3.96 -8.81,8.81 v 158.54" style="fill:#100f0d;fill-opacity:1;fill-rule:nonzero;stroke:none" />
    </g>
  </g>
</svg>

